<svg width="45" height="45" viewBox="0 0 45 45" fill="none" xmlns="http://www.w3.org/2000/svg">
<circle cx="22.5" cy="22.5" r="22.5" fill="#092336"/>
<g clip-path="url(#clip0_317_190)">
<path d="M18.9663 17.668H18.0996V18.5346H18.9663V17.668Z" fill="white"/>
<path d="M18.9663 19.3984H18.0996V20.2651H18.9663V19.3984Z" fill="white"/>
<path d="M18.9663 21.1328H18.0996V21.9995H18.9663V21.1328Z" fill="white"/>
<path d="M18.9663 22.8672H18.0996V23.7339H18.9663V22.8672Z" fill="white"/>
<path d="M20.6997 17.668H19.833V18.5346H20.6997V17.668Z" fill="white"/>
<path d="M20.6997 19.3984H19.833V20.2651H20.6997V19.3984Z" fill="white"/>
<path d="M20.6997 21.1328H19.833V21.9995H20.6997V21.1328Z" fill="white"/>
<path d="M20.6997 22.8672H19.833V23.7339H20.6997V22.8672Z" fill="white"/>
<path d="M22.4331 17.668H21.5664V18.5346H22.4331V17.668Z" fill="white"/>
<path d="M22.4331 19.3984H21.5664V20.2651H22.4331V19.3984Z" fill="white"/>
<path d="M22.4331 21.1328H21.5664V21.9995H22.4331V21.1328Z" fill="white"/>
<path d="M22.4331 22.8672H21.5664V23.7339H22.4331V22.8672Z" fill="white"/>
<path d="M24.1665 17.668H23.2998V18.5346H24.1665V17.668Z" fill="white"/>
<path d="M20.6997 15.9336H19.833V16.8003H20.6997V15.9336Z" fill="white"/>
<path d="M22.4331 15.9336H21.5664V16.8003H22.4331V15.9336Z" fill="white"/>
<path d="M24.1665 15.9336H23.2998V16.8003H24.1665V15.9336Z" fill="white"/>
<path d="M24.1665 19.3984H23.2998V20.2651H24.1665V19.3984Z" fill="white"/>
<path d="M24.1665 21.1328H23.2998V21.9995H24.1665V21.1328Z" fill="white"/>
<path d="M24.1665 22.8672H23.2998V23.7339H24.1665V22.8672Z" fill="white"/>
<path d="M25.8999 17.668H25.0332V18.5346H25.8999V17.668Z" fill="white"/>
<path d="M25.8999 19.3984H25.0332V20.2651H25.8999V19.3984Z" fill="white"/>
<path d="M25.8999 21.1328H25.0332V21.9995H25.8999V21.1328Z" fill="white"/>
<path d="M25.8999 22.8672H25.0332V23.7339H25.8999V22.8672Z" fill="white"/>
<path d="M34.5672 15.5C34.567 15.5 34.5668 15.5 34.5667 15.5H28.0667V9.43333C28.0668 9.19413 27.873 9.00016 27.6338 9C27.6337 9 27.6335 9 27.6333 9H16.3667C16.1275 8.99984 15.9335 9.19365 15.9333 9.43285C15.9333 9.43301 15.9333 9.43317 15.9333 9.43333V15.5H9.43333C9.19413 15.4998 9.00016 15.6936 9 15.9328C9 15.933 9 15.9332 9 15.9333V31.5333C8.99984 31.7725 9.19365 31.9665 9.43285 31.9667C9.43301 31.9667 9.43317 31.9667 9.43333 31.9667H10.3392C10.314 32.1098 10.3009 32.2547 10.3 32.4V34.5667C10.2998 34.8059 10.4936 34.9998 10.7328 35C10.733 35 10.7332 35 10.7333 35H33.2667C33.5059 35.0002 33.6998 34.8064 33.7 34.5672C33.7 34.567 33.7 34.5668 33.7 34.5667V32.4C33.6991 32.2547 33.686 32.1098 33.6608 31.9667H34.5667C34.8059 31.9668 34.9998 31.773 35 31.5338C35 31.5337 35 31.5335 35 31.5333V15.9333C35.0002 15.6941 34.8064 15.5002 34.5672 15.5ZM27.6333 27.6333C27.6333 28.112 27.2453 28.5 26.7667 28.5C26.288 28.5 25.9 28.112 25.9 27.6333C25.9 27.1547 26.288 26.7667 26.7667 26.7667C27.2451 26.7673 27.6327 27.1549 27.6333 27.6333ZM17.2333 26.7667C17.712 26.7667 18.1 27.1547 18.1 27.6333C18.1 28.112 17.712 28.5 17.2333 28.5C16.7547 28.5 16.3667 28.112 16.3667 27.6333C16.3673 27.1549 16.7549 26.7673 17.2333 26.7667ZM14.6333 34.1333H11.1667V32.4C11.1667 31.4427 11.9427 30.6667 12.9 30.6667C13.8573 30.6667 14.6333 31.4427 14.6333 32.4V34.1333ZM12.0333 28.9333C12.0333 28.4547 12.4213 28.0667 12.9 28.0667C13.3787 28.0667 13.7667 28.4547 13.7667 28.9333C13.7667 29.412 13.3787 29.8 12.9 29.8C12.4216 29.7994 12.0339 29.4117 12.0333 28.9333ZM14.699 30.5272C14.5356 30.3696 14.3523 30.2339 14.1539 30.1237C14.8148 29.4312 14.7893 28.334 14.0968 27.673C13.4043 27.012 12.3071 27.0376 11.6462 27.7301C11.0068 28.3998 11.0068 29.4539 11.6462 30.1236C11.2325 30.3532 10.8889 30.6906 10.6518 31.0999H9.86667V16.3667H15.9333V26.4989C15.3383 27.1666 15.3584 28.1801 15.9795 28.8237C15.3295 29.1832 14.8637 29.8029 14.699 30.5272ZM18.9667 34.1333H15.5V31.1C15.5 30.1427 16.276 29.3667 17.2333 29.3667C18.1906 29.3667 18.9667 30.1427 18.9667 31.1V34.1333ZM24.1667 34.1333H19.8333V31.1C19.8333 29.9034 20.8034 28.9333 22 28.9333C23.1966 28.9333 24.1667 29.9034 24.1667 31.1V34.1333ZM20.7 26.7667C20.7 26.0487 21.282 25.4667 22 25.4667C22.718 25.4667 23.3 26.0487 23.3 26.7667C23.3 27.4846 22.718 28.0667 22 28.0667C21.2823 28.0659 20.7008 27.4843 20.7 26.7667ZM24.6391 29.6101C24.3489 29.0986 23.9172 28.6818 23.3958 28.4098C24.3111 27.6389 24.4281 26.272 23.6572 25.3568C22.8863 24.4415 21.5194 24.3245 20.6042 25.0954C19.6889 25.8663 19.5719 27.2332 20.3428 28.1484C20.4223 28.2428 20.5097 28.3302 20.6042 28.4098C20.0828 28.6818 19.6511 29.0986 19.3609 29.6101C19.1331 29.2851 18.8343 29.0162 18.4872 28.8237C19.1515 28.1441 19.1392 27.0545 18.4595 26.3902C18.0219 25.9623 17.39 25.7992 16.8 25.9615V9.86667H27.2V25.9615C27.0588 25.9226 26.9131 25.9019 26.7667 25.9C25.8119 25.8975 25.0359 26.6694 25.0333 27.6242C25.0321 28.0709 25.204 28.5009 25.5128 28.8237C25.1657 29.0162 24.8669 29.2851 24.6391 29.6101ZM28.5 32.4V34.1333H25.0333V31.1C25.0333 30.1427 25.8094 29.3667 26.7667 29.3667C27.724 29.3667 28.5 30.1427 28.5 31.1V32.4ZM32.8333 34.1333H29.3667V32.4C29.3667 31.4427 30.1427 30.6667 31.1 30.6667C32.0573 30.6667 32.8333 31.4427 32.8333 32.4V34.1333ZM30.2333 28.9333C30.2333 28.4547 30.6213 28.0667 31.1 28.0667C31.5787 28.0667 31.9667 28.4547 31.9667 28.9333C31.9667 29.412 31.5787 29.8 31.1 29.8C30.6216 29.7994 30.2339 29.4117 30.2333 28.9333ZM34.1333 31.1H33.3482C33.1111 30.6907 32.7675 30.3533 32.3539 30.1237C33.0148 29.4312 32.9893 28.334 32.2968 27.673C31.6043 27.0121 30.5071 27.0376 29.8461 27.7301C29.2068 28.3998 29.2068 29.4539 29.8461 30.1236C29.6477 30.2339 29.4644 30.3695 29.301 30.5271C29.1363 29.8028 28.6705 29.1832 28.0205 28.8236C28.6416 28.1801 28.6618 27.1665 28.0667 26.4988V16.3667H34.1334V31.1H34.1333Z" fill="white"/>
<path d="M30.2329 18.9648H29.3662V25.8982H30.2329V18.9648Z" fill="white"/>
<path d="M32.8335 18.9648H31.9668V25.8982H32.8335V18.9648Z" fill="white"/>
<path d="M12.0337 18.9648H11.167V25.8982H12.0337V18.9648Z" fill="white"/>
<path d="M14.6333 18.9648H13.7666V25.8982H14.6333V18.9648Z" fill="white"/>
<path d="M24.6006 10.7344C24.6005 10.7344 24.6003 10.7344 24.6001 10.7344H19.4001C19.1609 10.7342 18.967 10.928 18.9668 11.1672C18.9668 11.1674 18.9668 11.1675 18.9668 11.1677V14.6344C18.9666 14.8736 19.1604 15.0675 19.3996 15.0677C19.3998 15.0677 19.4 15.0677 19.4001 15.0677H24.6001C24.8393 15.0679 25.0333 14.8741 25.0335 14.6349C25.0335 14.6347 25.0335 14.6345 25.0335 14.6344V11.1677C25.0336 10.9285 24.8398 10.7345 24.6006 10.7344ZM24.1668 14.201H19.8335V11.601H24.1668V14.201Z" fill="white"/>
</g>
<defs>
<clipPath id="clip0_317_190">
<rect width="26" height="26" fill="white" transform="translate(9 9)"/>
</clipPath>
</defs>
</svg>
