<svg width="45" height="45" viewBox="0 0 45 45" fill="none" xmlns="http://www.w3.org/2000/svg">
<circle cx="22.5" cy="22.5" r="22.5" fill="#092336"/>
<g clip-path="url(#clip0_317_191)">
<path d="M31.0024 19.1098C32.3376 18.3247 33.2414 16.8343 33.2414 15.1283C33.2414 12.6086 31.2705 10.5586 28.8475 10.5586C26.2643 10.5586 24.2008 12.8881 24.4783 15.6183C23.237 14.9649 21.7644 14.9646 20.5226 15.6183C20.8001 12.8941 18.7419 10.5586 16.1534 10.5586C13.7309 10.5586 11.7595 12.6086 11.7595 15.1283C11.7595 16.8344 12.6632 18.3247 13.9989 19.1098C11.8314 20.0045 10.2949 22.2067 10.2949 24.7758V30.3609C10.2949 30.6414 10.5133 30.8689 10.7832 30.8689H16.6417V34.9307C16.6417 35.2111 16.8605 35.4385 17.13 35.4385H27.8708C28.1406 35.4385 28.359 35.2111 28.359 34.9307V30.8689H34.218C34.4874 30.8689 34.7058 30.6414 34.7058 30.3609V24.7758C34.7058 22.2067 33.1693 20.0045 31.0024 19.1098ZM28.8474 11.574C30.732 11.574 32.2646 13.1684 32.2646 15.1282C32.2646 17.0883 30.7319 18.6827 28.8474 18.6827C27.9227 18.6827 27.0609 18.3053 26.4133 17.6204C26.2339 17.2563 26.0089 16.9211 25.7467 16.6215C25.5374 16.1524 25.4296 15.6505 25.4296 15.1282C25.4296 13.1685 26.9627 11.574 28.8474 11.574ZM25.916 19.7838C25.8554 21.7698 24.3103 23.2525 22.5006 23.2525C20.6093 23.2525 19.0828 21.6488 19.0828 19.698C19.0828 17.7385 20.6159 16.144 22.5006 16.144C24.4019 16.144 25.9627 17.7736 25.916 19.7838ZM12.736 15.1283C12.736 13.1685 14.2691 11.574 16.1533 11.574C18.0379 11.574 19.571 13.1685 19.571 15.1283C19.571 15.6505 19.4638 16.1524 19.254 16.6216C18.9917 16.9211 18.7666 17.2564 18.5873 17.6204C17.9397 18.3053 17.0785 18.6828 16.1533 18.6828C14.2692 18.6828 12.736 17.0883 12.736 15.1283ZM11.271 29.8531V24.7758C11.271 21.9759 13.4613 19.698 16.1533 19.698C16.8434 19.698 17.5052 19.8433 18.1261 20.1295C18.2639 21.653 19.1238 22.9614 20.3455 23.6795C18.1781 24.5742 16.6417 26.7767 16.6417 29.3455V29.8531H11.271ZM27.3829 34.4231H17.6183V29.3456C17.6183 26.5456 19.8086 24.2681 22.5006 24.2681C25.1926 24.2681 27.3829 26.5458 27.3829 29.3456V34.4231ZM33.7296 29.8531H28.359V29.3455C28.359 26.7767 26.8225 24.5742 24.6552 23.6795C25.8769 22.9614 26.7368 21.653 26.8746 20.1295C27.4955 19.8433 28.1578 19.698 28.8474 19.698C31.5394 19.698 33.7296 21.9759 33.7296 24.7758V29.8531H33.7296Z" fill="white"/>
</g>
<defs>
<clipPath id="clip0_317_191">
<rect width="25" height="26" fill="white" transform="translate(10 10)"/>
</clipPath>
</defs>
</svg>
