<svg width="52" height="52" viewBox="0 0 52 52" fill="none" xmlns="http://www.w3.org/2000/svg">
<path d="M32.0863 41.1305H7.85701V6.37979H32.0797V8.97946H35.3354V5.67013C35.3376 2.55281 32.778 0 29.6629 0H10.2781C7.15852 0 4.60571 2.55281 4.60571 5.67013V46.3276C4.60571 49.4495 7.15852 52 10.2781 52H29.6629C32.778 52 35.3376 49.4495 35.3376 46.3276V41.0702H32.0863V41.1305ZM19.9671 49.1616C18.53 49.1616 17.3697 47.999 17.3697 46.5642C17.3697 45.1249 18.5301 43.9645 19.9671 43.9645C21.4064 43.9645 22.5691 45.1271 22.5691 46.5642C22.5691 47.999 21.4065 49.1616 19.9671 49.1616Z" fill="white"/>
<path d="M17.901 9.86755H10.6331V14.2993H17.901V9.86755Z" fill="white"/>
<path d="M17.901 21.2146H10.6331V25.6463H17.901V21.2146Z" fill="white"/>
<path d="M17.901 33.0905H10.6331V37.5199H17.901V33.0905Z" fill="white"/>
<path d="M43.6966 23.1627C43.4399 21.8193 42.92 20.5764 42.1837 19.4896L44.7901 16.8811L42.1279 14.2278L39.526 16.8319C38.4437 16.0911 37.1941 15.5778 35.8552 15.319V11.6259H32.0885V15.319C30.7474 15.5778 29.5089 16.0933 28.4156 16.8319L25.8182 14.2278L23.156 16.8832L25.758 19.4918C25.0238 20.5785 24.5061 21.8215 24.2495 23.1626H20.5608V26.9271H24.2494C24.506 28.2637 25.026 29.5067 25.76 30.5979L23.1559 33.202L25.8181 35.8529L28.4222 33.251C29.5112 33.9918 30.754 34.5073 32.0951 34.7684V38.4548H35.8618V34.7662C37.2006 34.5096 38.4414 33.9896 39.5326 33.2533L42.1345 35.8552L44.7967 33.202L42.1903 30.5979C42.9266 29.5111 43.4444 28.266 43.7032 26.9249H47.3941V23.1627H43.6966ZM33.9763 29.1408C31.7114 29.1408 29.8726 27.311 29.8726 25.0438C29.8726 22.7789 31.7113 20.9379 33.9763 20.9379C36.2435 20.9379 38.0733 22.7766 38.0733 25.0438C38.0733 27.3131 36.239 29.1408 33.9763 29.1408Z" fill="white"/>
</svg>
