<svg width="45" height="44" viewBox="0 0 45 44" fill="none" xmlns="http://www.w3.org/2000/svg">
<ellipse cx="22.5" cy="22" rx="22.5" ry="22" fill="#D9D9D9"/>
<g clip-path="url(#clip0_317_184)">
<path d="M31.0024 18.1098C32.3376 17.3247 33.2414 15.8343 33.2414 14.1283C33.2414 11.6086 31.2705 9.55859 28.8475 9.55859C26.2643 9.55859 24.2008 11.8881 24.4783 14.6183C23.237 13.9649 21.7644 13.9646 20.5226 14.6183C20.8001 11.8941 18.7419 9.55859 16.1534 9.55859C13.7309 9.55859 11.7595 11.6086 11.7595 14.1283C11.7595 15.8344 12.6632 17.3247 13.9989 18.1098C11.8314 19.0045 10.2949 21.2067 10.2949 23.7758V29.3609C10.2949 29.6414 10.5133 29.8689 10.7832 29.8689H16.6417V33.9307C16.6417 34.2111 16.8605 34.4385 17.13 34.4385H27.8708C28.1406 34.4385 28.359 34.2111 28.359 33.9307V29.8689H34.218C34.4874 29.8689 34.7058 29.6414 34.7058 29.3609V23.7758C34.7058 21.2067 33.1693 19.0045 31.0024 18.1098ZM28.8474 10.574C30.732 10.574 32.2646 12.1684 32.2646 14.1282C32.2646 16.0883 30.7319 17.6827 28.8474 17.6827C27.9227 17.6827 27.0609 17.3053 26.4133 16.6204C26.2339 16.2563 26.0089 15.9211 25.7467 15.6215C25.5374 15.1524 25.4296 14.6505 25.4296 14.1282C25.4296 12.1685 26.9627 10.574 28.8474 10.574ZM25.916 18.7838C25.8554 20.7698 24.3103 22.2525 22.5006 22.2525C20.6093 22.2525 19.0828 20.6488 19.0828 18.698C19.0828 16.7385 20.6159 15.144 22.5006 15.144C24.4019 15.144 25.9627 16.7736 25.916 18.7838ZM12.736 14.1283C12.736 12.1685 14.2691 10.574 16.1533 10.574C18.0379 10.574 19.571 12.1685 19.571 14.1283C19.571 14.6505 19.4638 15.1524 19.254 15.6216C18.9917 15.9211 18.7666 16.2564 18.5873 16.6204C17.9397 17.3053 17.0785 17.6828 16.1533 17.6828C14.2692 17.6828 12.736 16.0883 12.736 14.1283ZM11.271 28.8531V23.7758C11.271 20.9759 13.4613 18.698 16.1533 18.698C16.8434 18.698 17.5052 18.8433 18.1261 19.1295C18.2639 20.653 19.1238 21.9614 20.3455 22.6795C18.1781 23.5742 16.6417 25.7767 16.6417 28.3455V28.8531H11.271ZM27.3829 33.4231H17.6183V28.3456C17.6183 25.5456 19.8086 23.2681 22.5006 23.2681C25.1926 23.2681 27.3829 25.5458 27.3829 28.3456V33.4231ZM33.7296 28.8531H28.359V28.3455C28.359 25.7767 26.8225 23.5742 24.6552 22.6795C25.8769 21.9614 26.7368 20.653 26.8746 19.1295C27.4955 18.8433 28.1578 18.698 28.8474 18.698C31.5394 18.698 33.7296 20.9759 33.7296 23.7758V28.8531H33.7296Z" fill="#092336"/>
</g>
<defs>
<clipPath id="clip0_317_184">
<rect width="25" height="26" fill="white" transform="translate(10 9)"/>
</clipPath>
</defs>
</svg>
