<svg width="45" height="45" viewBox="0 0 45 45" fill="none" xmlns="http://www.w3.org/2000/svg">
<circle cx="22.5" cy="22.5" r="22.5" fill="#D9D9D9"/>
<g clip-path="url(#clip0_317_183)">
<path d="M20.0966 23.3533H19.1611V21.5469H18.2256V26.063H19.1611V24.2566H20.0966V26.063H21.032V21.5469H20.0966V23.3533Z" fill="#092336"/>
<path d="M23.371 21.5469H21.9678V26.063H22.9033V24.2566H23.371C23.6289 24.2566 23.8387 24.4592 23.8387 24.7082V26.063H24.7742V24.7082C24.7742 24.3614 24.6385 24.0449 24.4158 23.8049C24.6385 23.5651 24.7742 23.2484 24.7742 22.9017C24.7742 22.1547 24.1448 21.5469 23.371 21.5469ZM22.9033 23.3533V22.4501H23.371C23.6289 22.4501 23.8387 22.6527 23.8387 22.9017C23.8387 23.1507 23.6289 23.3533 23.371 23.3533H22.9033Z" fill="#092336"/>
<path d="M21.4996 17.9336C18.1467 17.9336 15.4189 20.5673 15.4189 23.8046C15.4189 27.0418 18.1467 29.6755 21.4996 29.6755C24.8525 29.6755 27.5802 27.0418 27.5802 23.8046C27.5802 20.5673 24.8525 17.9336 21.4996 17.9336ZM21.4996 28.7723C18.6626 28.7723 16.3544 26.5438 16.3544 23.8046C16.3544 21.0654 18.6626 18.8368 21.4996 18.8368C24.3366 18.8368 26.6448 21.0654 26.6448 23.8046C26.6448 26.5438 24.3366 28.7723 21.4996 28.7723Z" fill="#092336"/>
<path d="M29.4516 27.4194V27.871H36V27.4194C36 26.2047 35.2865 25.1486 34.2432 24.6194C34.7453 24.2049 35.0645 23.5896 35.0645 22.9032C35.0645 21.6581 34.0154 20.6452 32.7258 20.6452C31.4362 20.6452 30.3871 21.6581 30.3871 22.9032C30.3871 23.0578 30.4034 23.2089 30.4342 23.3548H29.4375C29.3427 21.7858 28.7578 20.3418 27.8285 19.1639L28.2214 18.8387H34.129V18.3871C34.129 17.1725 33.4155 16.1163 32.3723 15.5872C32.8744 15.1726 33.1935 14.5573 33.1935 13.871C33.1935 12.6259 32.1444 11.6129 30.8548 11.6129C29.5653 11.6129 28.5161 12.6259 28.5161 13.871C28.5161 14.5573 28.8353 15.1726 29.3374 15.5872C28.3562 16.0849 27.6675 17.0489 27.589 18.1725L27.2193 18.4784C25.8735 17.1322 24.0244 16.2585 21.9677 16.1427V15.2258H24.7741V14.7742C24.7741 13.5596 24.0606 12.5034 23.0174 11.9742C23.5195 11.5597 23.8387 10.9444 23.8387 10.2581C23.8387 9.01297 22.7896 8 21.5 8C20.2104 8 19.1613 9.01297 19.1613 10.2581C19.1613 10.9444 19.4805 11.5597 19.9826 11.9742C18.9393 12.5034 18.2258 13.5596 18.2258 14.7742V15.2258H21.0323V16.1427C18.9756 16.2585 17.1264 17.1322 15.7807 18.4784L15.4109 18.1725C15.3325 17.0489 14.6438 16.0849 13.6625 15.5872C14.1647 15.1726 14.4839 14.5573 14.4839 13.871C14.4839 12.6259 13.4347 11.6129 12.1452 11.6129C10.8556 11.6129 9.80645 12.6259 9.80645 13.871C9.80645 14.5573 10.1256 15.1726 10.6277 15.5872C9.58451 16.1163 8.87097 17.1725 8.87097 18.3871V18.8387H14.7786L15.1715 19.1639C14.2423 20.3418 13.6573 21.7858 13.5625 23.3548H12.5658C12.5966 23.2089 12.6129 23.0578 12.6129 22.9032C12.6129 21.6581 11.5638 20.6452 10.2742 20.6452C8.98463 20.6452 7.93548 21.6581 7.93548 22.9032C7.93548 23.5896 8.25466 24.2049 8.75678 24.6194C7.71354 25.1486 7 26.2047 7 27.4194V27.871H13.5484V27.4194C13.5484 26.2047 12.8348 25.1486 11.7916 24.6194C11.9221 24.5117 12.0405 24.3907 12.1439 24.2581H13.5625C13.6602 25.876 14.2789 27.361 15.259 28.5584L14.4818 29.2255C14.091 28.9422 13.6058 28.7742 13.0806 28.7742C11.7911 28.7742 10.7419 29.7872 10.7419 31.0323C10.7419 31.7186 11.0611 32.3339 11.5632 32.7484C10.52 33.2776 9.80645 34.3338 9.80645 35.5484V36H16.3548V35.5484C16.3548 34.3338 15.6413 33.2776 14.5981 32.7484C15.1002 32.3339 15.4194 31.7186 15.4194 31.0323C15.4194 30.62 15.3038 30.2336 15.1032 29.9007L15.8808 29.2334C17.0061 30.3196 18.4662 31.0827 20.0968 31.3641V35.0968C20.0968 35.5948 20.5165 36 21.0323 36H21.9678C22.4836 36 22.9033 35.5948 22.9033 35.0968V31.3641C24.534 31.0827 25.994 30.3196 27.1193 29.2334L27.8969 29.9007C27.6962 30.2336 27.5806 30.62 27.5806 31.0323C27.5806 31.7186 27.8998 32.3339 28.4019 32.7484C27.3587 33.2776 26.6452 34.3338 26.6452 35.5484V36H33.1935V35.5484C33.1935 34.3338 32.48 33.2776 31.4368 32.7484C31.9389 32.3339 32.2581 31.7186 32.2581 31.0323C32.2581 29.7872 31.2089 28.7742 29.9194 28.7742C29.3942 28.7742 28.909 28.9422 28.5182 29.2255L27.741 28.5584C28.7211 27.361 29.3398 25.876 29.4375 24.2581H30.8561C30.9595 24.3907 31.0779 24.5116 31.2084 24.6194C30.1652 25.1486 29.4516 26.2047 29.4516 27.4194ZM33.1465 17.9355H31.3226V16.1749C32.2375 16.3551 32.9601 17.0521 33.1465 17.9355ZM29.4516 13.871C29.4516 13.1239 30.0811 12.5161 30.8548 12.5161C31.6285 12.5161 32.2581 13.1239 32.2581 13.871C32.2581 14.618 31.6285 15.2258 30.8548 15.2258C30.0811 15.2258 29.4516 14.618 29.4516 13.871ZM30.3871 16.1749V17.9355H28.5631C28.7496 17.0521 29.4722 16.3551 30.3871 16.1749ZM23.7917 14.3226H21.9677V12.562C22.8826 12.7422 23.6052 13.4392 23.7917 14.3226ZM20.0968 10.2581C20.0968 9.51104 20.7263 8.90323 21.5 8.90323C22.2737 8.90323 22.9032 9.51104 22.9032 10.2581C22.9032 11.0051 22.2737 11.6129 21.5 11.6129C20.7263 11.6129 20.0968 11.0051 20.0968 10.2581ZM19.2083 14.3226C19.3948 13.4392 20.1174 12.7422 21.0323 12.562V14.3226H19.2083ZM10.7419 13.871C10.7419 13.1239 11.3715 12.5161 12.1452 12.5161C12.9189 12.5161 13.5484 13.1239 13.5484 13.871C13.5484 14.618 12.9189 15.2258 12.1452 15.2258C11.3715 15.2258 10.7419 14.618 10.7419 13.871ZM11.6774 16.1749V17.9355H9.85346C10.0399 17.0521 10.7625 16.3551 11.6774 16.1749ZM12.6129 17.9355V16.1749C13.5278 16.3551 14.2504 17.0521 14.4369 17.9355H12.6129ZM9.80645 25.2072V26.9677H7.98249C8.16895 26.0843 8.89155 25.3873 9.80645 25.2072ZM12.5659 26.9677H10.7419V25.2072C11.6568 25.3873 12.3794 26.0843 12.5659 26.9677ZM8.87097 22.9032C8.87097 22.1562 9.50049 21.5484 10.2742 21.5484C11.0479 21.5484 11.6774 22.1562 11.6774 22.9032C11.6774 23.6502 11.0479 24.2581 10.2742 24.2581C9.50049 24.2581 8.87097 23.6502 8.87097 22.9032ZM12.6129 33.3362V35.0968H10.7889C10.9754 34.2134 11.698 33.5164 12.6129 33.3362ZM15.3723 35.0968H13.5484V33.3362C14.4633 33.5164 15.1859 34.2134 15.3723 35.0968ZM11.6774 31.0323C11.6774 30.2852 12.3069 29.6774 13.0806 29.6774C13.8543 29.6774 14.4839 30.2852 14.4839 31.0323C14.4839 31.7793 13.8543 32.3871 13.0806 32.3871C12.3069 32.3871 11.6774 31.7793 11.6774 31.0323ZM21.9677 35.0968H21.0323V31.4702C21.1871 31.479 21.343 31.4839 21.5 31.4839C21.657 31.4839 21.8129 31.479 21.9677 31.4702V35.0968ZM29.4516 33.3362V35.0968H27.6277C27.8141 34.2134 28.5367 33.5164 29.4516 33.3362ZM32.2111 35.0968H30.3871V33.3362C31.302 33.5164 32.0246 34.2134 32.2111 35.0968ZM29.9194 29.6774C30.6931 29.6774 31.3226 30.2852 31.3226 31.0323C31.3226 31.7793 30.6931 32.3871 29.9194 32.3871C29.1457 32.3871 28.5161 31.7793 28.5161 31.0323C28.5161 30.2852 29.1457 29.6774 29.9194 29.6774ZM21.5 30.5806C17.6313 30.5806 14.4839 27.5417 14.4839 23.8065C14.4839 20.0712 17.6313 17.0323 21.5 17.0323C25.3687 17.0323 28.5161 20.0712 28.5161 23.8065C28.5161 27.5417 25.3687 30.5806 21.5 30.5806ZM35.0175 26.9677H33.1935V25.2072C34.1085 25.3873 34.8311 26.0843 35.0175 26.9677ZM31.3226 22.9032C31.3226 22.1562 31.9521 21.5484 32.7258 21.5484C33.4995 21.5484 34.129 22.1562 34.129 22.9032C34.129 23.6502 33.4995 24.2581 32.7258 24.2581C31.9521 24.2581 31.3226 23.6502 31.3226 22.9032ZM32.2581 25.2072V26.9677H30.4341C30.6206 26.0843 31.3432 25.3873 32.2581 25.2072Z" fill="#092336"/>
</g>
<defs>
<clipPath id="clip0_317_183">
<rect width="29" height="28" fill="white" transform="translate(7 8)"/>
</clipPath>
</defs>
</svg>
