<svg width="45" height="45" viewBox="0 0 45 45" fill="none" xmlns="http://www.w3.org/2000/svg">
<circle cx="22.5" cy="22.5" r="22.5" fill="#D9D9D9"/>
<g clip-path="url(#clip0_317_192)">
<path d="M15.9065 23.3993C14.7399 23.7248 13.9604 24.0297 13.4265 24.6244C12.8936 25.2181 12.643 26.0409 12.5614 27.4648C12.5606 27.4788 12.5603 27.4927 12.5607 27.5068C12.5954 28.9337 12.6118 30.3805 12.6095 31.807C12.6094 31.8748 12.6227 31.942 12.6485 32.0046C12.6744 32.0673 12.7124 32.1242 12.7602 32.1722C12.8081 32.2202 12.865 32.2582 12.9276 32.2842C12.9902 32.3101 13.0574 32.3235 13.1251 32.3235H14.0358V35.8483H13.4843C13.3475 35.8483 13.2164 35.9026 13.1197 35.9993C13.023 36.096 12.9686 36.2271 12.9686 36.3639V37.5395C12.9692 37.9267 13.1232 38.298 13.3971 38.5718C13.6709 38.8456 14.0422 38.9996 14.4294 39H30.5707C30.958 38.9996 31.3293 38.8455 31.6032 38.5717C31.877 38.2978 32.0311 37.9265 32.0315 37.5392V36.3639C32.0315 36.2271 31.9772 36.096 31.8805 35.9993C31.7838 35.9026 31.6526 35.8483 31.5159 35.8483H30.9643V32.3235H31.875C31.9428 32.3235 32.0099 32.3101 32.0725 32.2842C32.1351 32.2582 32.192 32.2202 32.2399 32.1722C32.2878 32.1242 32.3258 32.0673 32.3516 32.0046C32.3775 31.942 32.3907 31.8748 32.3906 31.807C32.3883 30.3805 32.4047 28.9337 32.4394 27.5068C32.4398 27.4927 32.4394 27.4788 32.4388 27.4648C32.3572 26.0409 32.1065 25.2181 31.5736 24.6244C31.0401 24.0297 30.2602 23.7246 29.0936 23.3993C26.7463 22.744 25.7264 22.4898 25.2448 22.3888L24.9335 21.227C26.2259 20.5798 27.2087 19.4463 27.6663 18.0752H27.8892C28.2864 18.0754 28.6744 17.956 29.0028 17.7327C29.3312 17.5093 29.5848 17.1923 29.7306 16.8229C29.8764 16.4534 29.9076 16.0487 29.8202 15.6612C29.7329 15.2738 29.5309 14.9216 29.2407 14.6505C29.2551 14.6183 29.2662 14.5848 29.2738 14.5504C29.3625 14.149 29.4394 13.7288 29.5024 13.3015C29.5214 13.1725 29.5401 13.0516 29.5578 12.9372C29.7226 11.8751 29.822 11.2341 29.1852 10.0351C28.4888 8.7249 27.4242 7.64708 26.1227 6.93444C24.8213 6.22181 23.3397 5.9055 21.8607 6.0245C20.3817 6.14349 18.9698 6.69259 17.799 7.60413C16.6281 8.51567 15.7496 9.74983 15.2716 11.1545C15.2624 11.1815 15.2555 11.2091 15.2509 11.2372C15.0551 12.4322 15.2337 13.6821 15.7799 14.9535C15.5761 15.2411 15.4529 15.5779 15.423 15.9291C15.3931 16.2803 15.4576 16.6331 15.6098 16.951C15.762 17.2689 15.9965 17.5404 16.2888 17.7373C16.5812 17.9342 16.9208 18.0494 17.2726 18.0709C17.503 18.7595 17.8681 19.3954 18.3466 19.9416C18.8251 20.4878 19.4074 20.9333 20.0597 21.2523L19.7552 22.3888C19.2736 22.4898 18.2537 22.744 15.9065 23.3993ZM20.1244 23.367L21.6163 24.3599L20.725 24.9529L19.6668 23.4649C19.8814 23.4145 20.0272 23.384 20.1243 23.3669L20.1244 23.367ZM22.547 24.9793L23.0626 25.3225H22.0313L22.547 24.9793ZM13.6407 31.2923C13.6388 30.0321 13.6225 28.7598 13.5921 27.5029C13.7218 25.2857 14.1706 24.9545 16.1836 24.3925C17.2245 24.1019 18.0064 23.8898 18.5937 23.7355L19.7221 25.3224H15.4966C15.1093 25.3229 14.738 25.4769 14.4641 25.7508C14.1902 26.0246 14.0362 26.3959 14.0357 26.7832V31.2923H13.6407ZM31.0002 37.5392C31.0001 37.6531 30.9548 37.7623 30.8743 37.8428C30.7938 37.9233 30.6846 37.9686 30.5707 37.9688H14.4294C14.3155 37.9686 14.2063 37.9233 14.1258 37.8428C14.0453 37.7623 14 37.6531 13.9998 37.5392V36.8795H31.0002V37.5392ZM15.067 35.8483V26.7832C15.0671 26.6694 15.1124 26.5602 15.193 26.4796C15.2735 26.3991 15.3827 26.3538 15.4966 26.3537H29.5035C29.6174 26.3538 29.7266 26.3991 29.8071 26.4796C29.8877 26.5602 29.933 26.6694 29.9331 26.7832V35.8483H15.067ZM31.408 27.5029C31.3776 28.7598 31.3613 30.0321 31.3594 31.2923H30.9643V26.7832C30.9639 26.3959 30.8099 26.0246 30.536 25.7508C30.2621 25.4769 29.8908 25.3229 29.5035 25.3224H25.3715L26.4597 23.7923C26.4682 23.7804 26.4757 23.768 26.4831 23.7556C27.0612 23.9081 27.8207 24.1146 28.8163 24.3925C30.8294 24.9545 31.2786 25.2859 31.408 27.5029ZM25.4133 23.484L24.3686 24.953L23.4773 24.36L24.9493 23.3806C25.0564 23.4015 25.2066 23.4346 25.4133 23.484ZM27.9052 17.0431C27.9889 16.4111 27.9616 15.7694 27.8244 15.1468H27.8888C28.1384 15.1475 28.3777 15.2466 28.5547 15.4226C28.7317 15.5986 28.8322 15.8373 28.8343 16.0869C28.8365 16.3365 28.7401 16.5769 28.5661 16.7559C28.3922 16.9349 28.1546 17.0381 27.9051 17.0431H27.9052ZM16.2619 11.4459C16.6818 10.238 17.4451 9.17877 18.458 8.3981C19.4709 7.61743 20.6896 7.1492 21.9647 7.05078C23.2397 6.95236 24.5158 7.22803 25.6366 7.844C26.7573 8.45998 27.674 9.38951 28.2744 10.5187C28.7503 11.4146 28.6927 11.7862 28.5387 12.7791C28.5205 12.8959 28.5013 13.0194 28.482 13.1511C28.4313 13.495 28.3706 13.8328 28.3023 14.1593C28.1665 14.1302 28.028 14.1156 27.8891 14.1156H27.5031C26.8571 11.9663 26.1332 10.8562 25.2304 10.6277C24.6659 10.485 24.1025 10.6931 23.5551 11.2465C23.5254 11.2765 23.4994 11.3101 23.4778 11.3465C22.4151 13.1421 20.5215 13.9999 17.8485 13.8966C17.7627 13.8936 17.6775 13.9121 17.6006 13.9503C17.5238 13.9886 17.4577 14.0455 17.4084 14.1158H17.3955C17.1278 14.1155 16.8629 14.1699 16.617 14.2755C16.2424 13.2982 16.1223 12.348 16.2619 11.4459ZM16.4471 16.0954C16.4475 15.9015 16.5071 15.7124 16.6181 15.5535C16.7292 15.3945 16.8862 15.2734 17.0681 15.2064C16.9585 15.7859 16.9409 16.3791 17.016 16.9641C16.8471 16.8901 16.7033 16.7686 16.6023 16.6144C16.5013 16.4601 16.4474 16.2798 16.4471 16.0954ZM18.1931 14.9361H18.2824C21.0886 14.9361 23.1219 13.9258 24.3306 11.9295C24.5845 11.6846 24.802 11.5829 24.9776 11.6273C25.2129 11.6868 25.838 12.0913 26.5586 14.5562C26.564 14.5747 26.5704 14.5928 26.5779 14.6106C26.957 15.5162 27.026 16.5218 26.7743 17.4708C26.5225 18.4197 25.9641 19.2588 25.1859 19.8575C24.4077 20.4561 23.4535 20.7807 22.4717 20.7807C21.4899 20.7807 20.5357 20.4561 19.7575 19.8574C18.2679 18.7118 17.6526 16.7302 18.1931 14.9361ZM22.4716 21.8104C22.9772 21.8102 23.4804 21.7404 23.9669 21.6028L24.2381 22.6147L22.5472 23.7402L20.7766 22.5619L21.0299 21.6169C21.4998 21.745 21.9846 21.81 22.4716 21.8104ZM22.5 29.4064C22.1801 29.4064 21.8673 29.5013 21.6013 29.6791C21.3352 29.8568 21.1279 30.1095 21.0054 30.4051C20.883 30.7007 20.8509 31.026 20.9134 31.3398C20.9758 31.6536 21.1299 31.9419 21.3561 32.1681C21.5824 32.3944 21.8706 32.5485 22.1844 32.6109C22.4982 32.6733 22.8235 32.6413 23.1191 32.5188C23.4147 32.3964 23.6674 32.189 23.8452 31.923C24.0229 31.6569 24.1178 31.3442 24.1178 31.0242C24.1173 30.5953 23.9467 30.1841 23.6434 29.8808C23.3401 29.5775 22.9289 29.4069 22.5 29.4064ZM22.5 31.6107C22.384 31.6107 22.2706 31.5763 22.1742 31.5119C22.0777 31.4474 22.0026 31.3558 21.9582 31.2486C21.9138 31.1415 21.9022 31.0235 21.9248 30.9098C21.9474 30.796 22.0033 30.6915 22.0853 30.6095C22.1673 30.5274 22.2718 30.4716 22.3856 30.4489C22.4994 30.4263 22.6173 30.4379 22.7245 30.4823C22.8317 30.5267 22.9233 30.6019 22.9877 30.6983C23.0522 30.7948 23.0866 30.9082 23.0866 31.0242C23.0864 31.1797 23.0245 31.3288 22.9146 31.4387C22.8046 31.5487 22.6555 31.6105 22.5 31.6107Z" fill="#092336"/>
</g>
<defs>
<clipPath id="clip0_317_192">
<rect width="33" height="33" fill="white" transform="translate(6 6)"/>
</clipPath>
</defs>
</svg>
