<svg width="45" height="45" viewBox="0 0 45 45" fill="none" xmlns="http://www.w3.org/2000/svg">
<circle cx="22.5" cy="22.5" r="22.5" fill="#D9D9D9"/>
<path d="M10.2998 33.3732C10.2991 33.4164 10.3071 33.4593 10.3234 33.4994C10.3396 33.5395 10.3637 33.5758 10.3942 33.6064C10.4248 33.637 10.4612 33.6611 10.5013 33.6773C10.5413 33.6935 10.5842 33.7015 10.6274 33.7008H33.3722C33.4155 33.7015 33.4584 33.6935 33.4984 33.6773C33.5385 33.6611 33.5749 33.637 33.6055 33.6064C33.636 33.5758 33.6601 33.5395 33.6763 33.4994C33.6926 33.4593 33.7005 33.4164 33.6998 33.3732V31.7534C33.699 31.1293 33.5131 30.5194 33.1655 30.0011C32.8179 29.4827 32.3243 29.0791 31.7472 28.8414C32.0894 28.5858 32.3424 28.229 32.4703 27.8215C32.5982 27.4141 32.5946 26.9767 32.4599 26.5714C32.3253 26.1661 32.0664 25.8135 31.7201 25.5637C31.3737 25.3138 30.9575 25.1793 30.5304 25.1793C30.1034 25.1793 29.6872 25.3138 29.3408 25.5637C28.9945 25.8135 28.7356 26.1661 28.601 26.5714C28.4663 26.9767 28.4627 27.4141 28.5906 27.8215C28.7185 28.229 28.9715 28.5858 29.3136 28.8414C28.6046 29.1372 28.0271 29.6805 27.6886 30.3702C27.3488 29.6811 26.7705 29.1388 26.061 28.844C26.4032 28.5884 26.6562 28.2316 26.7841 27.8241C26.912 27.4167 26.9084 26.9793 26.7737 26.574C26.6391 26.1687 26.3802 25.8161 26.0339 25.5663C25.6875 25.3164 25.2713 25.1819 24.8442 25.1819C24.4172 25.1819 24.001 25.3164 23.6546 25.5663C23.3083 25.8161 23.0494 26.1687 22.9148 26.574C22.7801 26.9793 22.7765 27.4167 22.9044 27.8241C23.0323 28.2316 23.2853 28.5884 23.6274 28.844C22.9183 29.138 22.34 29.6794 21.9998 30.3676C21.66 29.6785 21.0817 29.1362 20.3722 28.8414C20.6984 28.5941 20.9422 28.254 21.0717 27.8657C21.2011 27.4774 21.2102 27.0591 21.0978 26.6655C20.9853 26.272 20.7566 25.9216 20.4415 25.6603C20.1265 25.399 19.7398 25.2391 19.3322 25.2014V23.3892H31.6016C31.6878 23.3892 31.7705 23.355 31.8315 23.294C31.8924 23.2331 31.9266 23.1504 31.9266 23.0642V21.6108C31.9266 21.5246 31.8924 21.4419 31.8315 21.381C31.7705 21.32 31.6878 21.2858 31.6016 21.2858H31.0452C31.0465 21.2693 31.0465 21.2528 31.0452 21.2364V10.6284C31.0466 10.5433 31.0144 10.4612 30.9554 10.3998C30.8965 10.3384 30.8157 10.3028 30.7306 10.3008H16.5788C16.5358 10.3004 16.4932 10.3087 16.4535 10.3251C16.4137 10.3414 16.3776 10.3656 16.3473 10.3961C16.317 10.4266 16.2932 10.4629 16.2771 10.5028C16.2611 10.5427 16.2532 10.5854 16.2538 10.6284V12.9684C15.8062 13.0114 15.3805 13.1825 15.0276 13.4612C14.6746 13.7398 14.4095 14.1143 14.2638 14.5397C14.1182 14.9652 14.0982 15.4236 14.2063 15.8601C14.3144 16.2966 14.5459 16.6927 14.8732 17.001H14.751C14.3961 17.0017 14.0447 17.0723 13.7171 17.2089C13.3894 17.3454 13.0919 17.5452 12.8415 17.7968C12.5911 18.0484 12.3927 18.3469 12.2577 18.6752C12.1228 19.0035 12.0538 19.3552 12.0548 19.7102V25.7578C11.8432 25.9616 11.6786 26.2092 11.5723 26.4831C11.466 26.757 11.4207 27.0509 11.4395 27.3441C11.4583 27.6373 11.5408 27.9229 11.6812 28.1811C11.8216 28.4392 12.0165 28.6636 12.2524 28.8388C11.6752 29.077 11.1815 29.481 10.8339 29.9998C10.4864 30.5187 10.3005 31.1289 10.2998 31.7534V33.3732ZM30.5278 25.8332C30.8014 25.8332 31.0688 25.9143 31.2963 26.0663C31.5238 26.2183 31.7011 26.4343 31.8058 26.6871C31.9104 26.9398 31.9378 27.2179 31.8845 27.4862C31.8311 27.7546 31.6994 28.001 31.5059 28.1945C31.3125 28.3879 31.066 28.5196 30.7977 28.573C30.5294 28.6264 30.2513 28.599 29.9985 28.4943C29.7458 28.3896 29.5297 28.2123 29.3778 27.9849C29.2258 27.7574 29.1446 27.49 29.1446 27.2164C29.1446 26.8489 29.2906 26.4964 29.5505 26.2365C29.8104 25.9766 30.1629 25.8306 30.5304 25.8306L30.5278 25.8332ZM30.5278 29.2496C31.1924 29.2503 31.8295 29.5146 32.2994 29.9845C32.7693 30.4544 33.0336 31.0915 33.0342 31.756V33.056H28.011V31.756C28.0121 31.425 28.0783 31.0975 28.2061 30.7922C28.3339 30.4869 28.5206 30.2098 28.7555 29.9768C28.9905 29.7437 29.2692 29.5593 29.5755 29.4341C29.8819 29.3089 30.2099 29.2453 30.5408 29.247L30.5278 29.2496ZM24.8442 25.8306C25.1178 25.8306 25.3852 25.9117 25.6127 26.0637C25.8402 26.2157 26.0175 26.4317 26.1222 26.6845C26.2268 26.9372 26.2542 27.2153 26.2009 27.4836C26.1475 27.752 26.0158 27.9984 25.8223 28.1919C25.6289 28.3853 25.3824 28.517 25.1141 28.5704C24.8458 28.6238 24.5677 28.5964 24.3149 28.4917C24.0622 28.387 23.8461 28.2097 23.6942 27.9823C23.5422 27.7548 23.461 27.4874 23.461 27.2138C23.4617 26.8472 23.6077 26.4957 23.8669 26.2365C24.1262 25.9772 24.4776 25.8313 24.8442 25.8306ZM24.8442 29.247C25.5088 29.2477 26.1459 29.512 26.6158 29.9819C27.0857 30.4518 27.35 31.0889 27.3506 31.7534V33.0534H22.3248V31.7534C22.3262 31.4222 22.3929 31.0946 22.5211 30.7892C22.6494 30.4839 22.8366 30.2069 23.0721 29.974C23.3076 29.7412 23.5867 29.5571 23.8935 29.4323C24.2003 29.3076 24.5287 29.2446 24.8598 29.247H24.8442ZM21.6748 31.7534V33.0534H16.6386V31.7534C16.6597 31.0996 16.9342 30.4795 17.4041 30.0244C17.874 29.5694 18.5026 29.3149 19.1567 29.3149C19.8109 29.3149 20.4394 29.5694 20.9094 30.0244C21.3793 30.4795 21.6538 31.0996 21.6748 31.7534ZM20.5386 27.2138C20.5386 27.4874 20.4575 27.7548 20.3055 27.9823C20.1535 28.2097 19.9375 28.387 19.6848 28.4917C19.432 28.5964 19.1539 28.6238 18.8856 28.5704C18.6173 28.517 18.3708 28.3853 18.1774 28.1919C17.9839 27.9984 17.8522 27.752 17.7988 27.4836C17.7455 27.2153 17.7728 26.9372 17.8775 26.6845C17.9822 26.4317 18.1595 26.2157 18.387 26.0637C18.6144 25.9117 18.8819 25.8306 19.1554 25.8306C19.3371 25.8306 19.517 25.8664 19.6848 25.9359C19.8526 26.0054 20.0051 26.1073 20.1335 26.2357C20.262 26.3642 20.3638 26.5166 20.4334 26.6845C20.5029 26.8523 20.5386 27.0321 20.5386 27.2138ZM31.2766 22.7392H19.3452V21.9358H31.2766V22.7392ZM30.4056 10.9534V21.2364C30.4044 21.2528 30.4044 21.2693 30.4056 21.2858H19.3452V19.6608H21.4512C21.5013 19.6614 21.5508 19.6505 21.5958 19.6288C21.6409 19.6072 21.6804 19.5754 21.7112 19.536L23.6924 16.9724C23.8046 16.8313 23.8871 16.6689 23.9349 16.4951C23.9827 16.3213 23.9949 16.1396 23.9706 15.961C23.9461 15.7823 23.8853 15.6105 23.7918 15.4562C23.6983 15.302 23.5743 15.1685 23.4272 15.064C23.1402 14.8674 22.7886 14.7885 22.4451 14.8436C22.1015 14.8988 21.7923 15.0838 21.5812 15.3604L20.2656 17.0036H18.0998C18.4147 16.7056 18.6406 16.3261 18.7524 15.9072C18.8642 15.4884 18.8574 15.0467 18.7328 14.6315C18.6083 14.2163 18.3708 13.8438 18.047 13.5557C17.7231 13.2675 17.3255 13.075 16.8986 12.9996V10.9534H30.4056ZM14.8056 15.3136C14.8056 14.9778 14.9052 14.6495 15.0918 14.3703C15.2783 14.0911 15.5435 13.8735 15.8537 13.745C16.164 13.6165 16.5053 13.5829 16.8347 13.6484C17.164 13.7139 17.4665 13.8756 17.704 14.1131C17.9414 14.3505 18.1031 14.653 18.1686 14.9824C18.2341 15.3117 18.2005 15.6531 18.072 15.9633C17.9435 16.2735 17.7259 16.5387 17.4467 16.7253C17.1675 16.9118 16.8392 17.0114 16.5034 17.0114C16.2794 17.0131 16.0572 16.9705 15.8497 16.8859C15.6422 16.8014 15.4535 16.6766 15.2945 16.5187C15.1355 16.3609 15.0093 16.1732 14.9231 15.9663C14.837 15.7595 14.7926 15.5376 14.7926 15.3136H14.8056ZM12.7256 19.7102C12.7263 19.1675 12.9421 18.6472 13.3256 18.2631C13.7091 17.8791 14.2291 17.6628 14.7718 17.6614H20.4216C20.4715 17.6629 20.5211 17.6526 20.5663 17.6314C20.6115 17.6102 20.651 17.5786 20.6816 17.5392L22.0934 15.7738C22.2012 15.6322 22.3579 15.5359 22.533 15.5037C22.708 15.4714 22.8887 15.5056 23.0398 15.5996C23.1153 15.6534 23.1789 15.7221 23.2268 15.8015C23.2746 15.8809 23.3057 15.9692 23.3182 16.061C23.3306 16.1529 23.3241 16.2463 23.299 16.3355C23.2739 16.4247 23.2309 16.5079 23.1724 16.5798L21.2874 19.0186H19.0202C18.9341 19.0186 18.8514 19.0528 18.7904 19.1138C18.7295 19.1747 18.6952 19.2574 18.6952 19.3436V25.2352C18.3178 25.3219 17.973 25.5149 17.7018 25.7913C17.4305 26.0677 17.2441 26.416 17.1645 26.795C17.0849 27.1741 17.1155 27.5679 17.2527 27.9301C17.3899 28.2923 17.6279 28.6076 17.9386 28.8388C17.2296 29.1346 16.6521 29.6779 16.3136 30.3676C15.9736 29.6778 15.3941 29.1353 14.6834 28.8414C14.9281 28.6598 15.1286 28.4253 15.2702 28.1555C15.4118 27.8857 15.4908 27.5875 15.5013 27.283C15.5118 26.9785 15.4535 26.6755 15.3308 26.3966C15.2081 26.1177 15.0242 25.87 14.7926 25.672V19.9208C14.7926 19.8346 14.7584 19.7519 14.6975 19.691C14.6365 19.63 14.5538 19.5958 14.4676 19.5958C14.3815 19.5958 14.2988 19.63 14.2378 19.691C14.1769 19.7519 14.1426 19.8346 14.1426 19.9208V25.2976C13.9266 25.2201 13.6988 25.1805 13.4692 25.1806C13.2071 25.1808 12.9475 25.2321 12.7048 25.3314L12.7256 19.7102ZM13.49 25.8306C13.7636 25.8306 14.031 25.9117 14.2585 26.0637C14.486 26.2157 14.6633 26.4317 14.768 26.6845C14.8726 26.9372 14.9 27.2153 14.8467 27.4836C14.7933 27.752 14.6616 27.9984 14.4681 28.1919C14.2747 28.3853 14.0282 28.517 13.7599 28.5704C13.4916 28.6238 13.2135 28.5964 12.9607 28.4917C12.708 28.387 12.4919 28.2097 12.34 27.9823C12.188 27.7548 12.1068 27.4874 12.1068 27.2138C12.1075 26.8507 12.2506 26.5024 12.5053 26.2437C12.7601 25.9851 13.1062 25.8367 13.4692 25.8306H13.49ZM10.9524 31.7534C10.9735 31.0996 11.248 30.4795 11.7179 30.0244C12.1878 29.5694 12.8164 29.3149 13.4705 29.3149C14.1247 29.3149 14.7532 29.5694 15.2232 30.0244C15.6931 30.4795 15.9676 31.0996 15.9886 31.7534V33.0534H10.9524V31.7534Z" fill="#092336"/>
</svg>
