<svg width="51" height="51" viewBox="0 0 51 51" fill="none" xmlns="http://www.w3.org/2000/svg">
<path d="M31.4766 2.98828H29.7271C29.1098 1.249 27.448 0 25.5 0C23.552 0 21.8902 1.249 21.2729 2.98828H19.5234C17.0517 2.98828 15.041 4.999 15.041 7.4707C15.041 8.29656 15.7093 8.96484 16.5352 8.96484H34.4648C35.2907 8.96484 35.959 8.29656 35.959 7.4707C35.959 4.999 33.9483 2.98828 31.4766 2.98828Z" fill="white"/>
<path d="M40.4414 5.97656H38.7961C38.8946 6.45957 38.9473 6.95911 38.9473 7.4707C38.9473 9.94241 36.9366 11.9531 34.4648 11.9531H16.5352C14.0634 11.9531 12.0527 9.94241 12.0527 7.4707C12.0527 6.95911 12.1054 6.45957 12.2039 5.97656H10.5586C8.08689 5.97656 6.07617 7.98728 6.07617 10.459V46.5176C6.07617 48.9893 8.08689 51 10.5586 51H40.4414C42.9131 51 44.9238 48.9893 44.9238 46.5176V10.459C44.9238 7.98728 42.9131 5.97656 40.4414 5.97656ZM21.0176 41.8359H15.041C14.2152 41.8359 13.5469 41.1677 13.5469 40.3418C13.5469 39.5159 14.2152 38.8477 15.041 38.8477H21.0176C21.8434 38.8477 22.5117 39.5159 22.5117 40.3418C22.5117 41.1677 21.8434 41.8359 21.0176 41.8359ZM21.0176 31.377H15.041C14.2152 31.377 13.5469 30.7087 13.5469 29.8828C13.5469 29.057 14.2152 28.3887 15.041 28.3887H21.0176C21.8434 28.3887 22.5117 29.057 22.5117 29.8828C22.5117 30.7087 21.8434 31.377 21.0176 31.377ZM21.0176 20.918H15.041C14.2152 20.918 13.5469 20.2497 13.5469 19.4238C13.5469 18.598 14.2152 17.9297 15.041 17.9297H21.0176C21.8434 17.9297 22.5117 18.598 22.5117 19.4238C22.5117 20.2497 21.8434 20.918 21.0176 20.918ZM35.5212 42.2737C36.1048 42.8573 36.1048 43.8029 35.5212 44.3865C35.2293 44.6784 34.847 44.8243 34.4648 44.8243C34.0826 44.8243 33.7002 44.6784 33.4085 44.3865L31.4766 42.4546L29.5446 44.3865C29.2528 44.6784 28.8705 44.8243 28.4883 44.8243C28.1061 44.8243 27.7237 44.6784 27.4319 44.3865C26.8483 43.8029 26.8483 42.8573 27.4319 42.2737L29.3637 40.3418L27.4318 38.4099C26.8482 37.8263 26.8482 36.8807 27.4318 36.2971C28.0154 35.7134 28.961 35.7134 29.5446 36.2971L31.4766 38.229L33.4085 36.2971C33.9921 35.7134 34.9377 35.7134 35.5213 36.2971C36.1049 36.8807 36.1049 37.8263 35.5213 38.4099L33.5894 40.3418L35.5212 42.2737ZM37.0153 27.9509L32.5329 32.4333C32.2411 32.7252 31.8588 32.8711 31.4766 32.8711C31.0944 32.8711 30.712 32.7252 30.4202 32.4333L27.4319 29.445C26.8483 28.8614 26.8483 27.9158 27.4319 27.3322C28.0155 26.7486 28.9611 26.7486 29.5447 27.3322L31.4766 29.2641L34.9026 25.8381C35.4862 25.2545 36.4318 25.2545 37.0154 25.8381C37.5991 26.4217 37.5991 27.3673 37.0153 27.9509ZM37.0153 18.986L32.5329 23.4685C32.2411 23.7603 31.8588 23.9062 31.4766 23.9062C31.0944 23.9062 30.712 23.7603 30.4202 23.4685L27.4319 20.4802C26.8483 19.8966 26.8483 18.951 27.4319 18.3674C28.0155 17.7838 28.9611 17.7838 29.5447 18.3674L31.4766 20.2993L34.9026 16.8732C35.4862 16.2896 36.4318 16.2896 37.0154 16.8732C37.5991 17.4568 37.5991 18.4024 37.0153 18.986Z" fill="white"/>
</svg>
