<svg width="52" height="52" viewBox="0 0 52 52" fill="none" xmlns="http://www.w3.org/2000/svg">
<g clip-path="url(#clip0_91_202)">
<path d="M33.8292 9.35413C32.0435 5.99342 29.8483 3.78403 27.5278 3.13403V13.6804C30.2747 13.643 32.9571 13.4798 35.4809 13.203C35.0089 11.8271 34.4573 10.5366 33.8292 9.35413Z" fill="white"/>
<path d="M36.3434 16.1772C33.551 16.504 30.5729 16.6953 27.5276 16.7357V24.4722H37.4285C37.3367 21.5642 36.967 18.7625 36.3434 16.1772Z" fill="white"/>
<path d="M15.6734 16.1072C15.0397 18.7117 14.664 21.5379 14.5713 24.4723H24.4721V16.7256C21.415 16.665 18.445 16.454 15.6734 16.1072Z" fill="white"/>
<path d="M18.1708 9.35413C17.5525 10.5178 17.0085 11.7863 16.5415 13.1378C19.0441 13.4327 21.717 13.6138 24.4721 13.6698V3.13403C22.1516 3.78393 19.9564 5.99342 18.1708 9.35413Z" fill="white"/>
<path d="M14.5771 27.5277C14.7012 31.017 15.2258 34.3498 16.1089 37.3341C18.6744 36.9865 21.4855 36.7602 24.4723 36.6645V27.5277H14.5771Z" fill="white"/>
<path d="M48.6968 13.2006C47.1086 13.8292 46.4714 14.0882 46.266 14.177C46.3479 14.1509 46.431 14.1253 46.512 14.0989C46.5626 14.0824 45.9715 14.3042 46.266 14.177C44.2573 14.8149 41.9272 15.3463 39.3813 15.757C40.0192 18.4942 40.3951 21.4355 40.4856 24.4723H52.0001C51.7698 20.4652 50.6369 16.6288 48.6968 13.2006Z" fill="white"/>
<path d="M11.5203 27.5276H0C0.273305 32.2824 1.81939 36.7962 4.47474 40.6736C5.35681 40.1529 6.37904 39.6844 7.53949 39.2706C9.13687 38.7011 10.9981 38.2171 13.072 37.8239C12.1727 34.6569 11.642 31.1622 11.5203 27.5276Z" fill="white"/>
<path d="M5.56522 13.9167C5.26622 13.8142 4.40355 13.5104 3.37462 13.077C1.39141 16.5367 0.232984 20.4167 0 24.4722H11.5145C11.6061 21.3996 11.9895 18.4243 12.641 15.6597C9.99629 15.2067 7.59799 14.621 5.56522 13.9167Z" fill="white"/>
<path d="M7.58288 7.58296C6.67115 8.49479 5.8357 9.46258 5.07886 10.4782C5.54564 10.6651 6.03852 10.849 6.5503 11.0246L6.56512 11.0297C8.52985 11.7103 10.8708 12.2736 13.4665 12.7041C14.0249 10.9888 14.6955 9.38275 15.4726 7.92035C17.8557 3.43505 21.0085 0.619328 24.4722 0C18.0897 0.366742 12.1404 3.02555 7.58288 7.58296Z" fill="white"/>
<path d="M15.4726 43.902C14.9469 42.9127 14.4705 41.8569 14.0437 40.7471C11.9705 41.1229 10.1265 41.5922 8.56554 42.1488C7.68733 42.4621 6.96329 42.7876 6.36499 43.1127C6.75489 43.5586 7.16002 43.9942 7.58283 44.417C12.1402 48.9745 18.0896 51.6333 24.4721 52C21.0086 51.3806 17.8558 48.3873 15.4726 43.902Z" fill="white"/>
<path d="M44.4169 7.58306C39.8594 3.02555 33.9101 0.366742 27.5276 0C30.9912 0.619328 34.1439 3.43505 36.5271 7.92045C37.3181 9.40895 37.9991 11.0459 38.5633 12.7959C41.1676 12.39 43.5338 11.8541 45.5354 11.2034C45.755 11.1197 46.101 10.9643 47.0062 10.5942C46.227 9.53641 45.3633 8.52942 44.4169 7.58306Z" fill="white"/>
<path d="M38.1283 40.2891C37.659 41.5675 37.1249 42.7774 36.5274 43.902C34.1441 48.3874 30.9915 51.3806 27.5278 52C33.9103 51.6333 39.8597 48.9745 44.4172 44.4171C45.1823 43.6519 45.894 42.8473 46.5504 42.0081C44.1537 41.2686 41.2852 40.6874 38.1283 40.2891Z" fill="white"/>
<path d="M17.1431 40.2767C17.4589 41.0413 17.8017 41.7733 18.1709 42.4683C19.9564 45.829 22.1517 48.2159 24.4722 48.8659V39.7209C21.8624 39.8064 19.4023 39.9939 17.1431 40.2767Z" fill="white"/>
<path d="M40.4798 27.5276C40.3643 30.9752 39.8812 34.2971 39.0642 37.3329C42.5828 37.8054 45.7586 38.4993 48.3567 39.3824C50.5045 35.8085 51.7567 31.7635 52.0001 27.5277H40.4798V27.5276Z" fill="white"/>
<path d="M27.5276 27.5277V36.6126C27.6123 36.6124 27.6964 36.6117 27.7813 36.6117C30.601 36.6117 33.366 36.7404 35.9926 36.9852C36.8147 34.0911 37.3036 30.8814 37.4228 27.5277H27.5276Z" fill="white"/>
<path d="M27.7813 39.6672C27.6964 39.6672 27.6122 39.6679 27.5276 39.6682V48.8662C29.8481 48.2161 32.0433 45.8291 33.8289 42.4684C34.2486 41.6787 34.6336 40.8405 34.9842 39.9615C32.6733 39.7683 30.2521 39.6672 27.7813 39.6672Z" fill="white"/>
</g>
<defs>
<clipPath id="clip0_91_202">
<rect width="52" height="52" fill="white"/>
</clipPath>
</defs>
</svg>
